<?xml version="1.0" encoding="utf-8"?>
<!-- Generator: Adobe Adobe Illustrator 24.2.0, SVG Export Plug-In . SVG Version: 6.00 Build 0)  -->
<svg version="1.1" id="Layer_1" xmlns="http://www.w3.org/2000/svg" xmlns:xlink="http://www.w3.org/1999/xlink" x="0px" y="0px"
	 viewBox="0 0 640 480" style="enable-background:new 0 0 640 480;" xml:space="preserve">
<style type="text/css">
	.st0{fill:#c6c7cb;}
</style>
<g>
	<g transform="translate(0.000000,527.000000) scale(0.100000,-0.100000)">
		<path class="st0" d="M2813.45,4998.97l-95.38-271.94h-824.03H1070v-1701.9v-1701.9h216.33c118.98,0,216.33-0.91,216.33-2.74
			c0-0.91-67.85-191.63-151.43-424.33l-151.43-421.6h40.32c22.62-0.91,119.97-1.83,216.33-2.74l175.03-1.83l98.33,280.15
			l99.32,281.06l571.32,1.83l572.3,2.74l2.95,144.18l2.95,143.27h672.6c370.72,0,673.58,0.91,673.58,2.74
			c0,5.48-620.48,1748.44-1043.32,2931.1c-80.63,226.31-146.52,417.03-146.52,424.33c0,8.21,46.22,142.36,102.27,299.32
			c57.03,156.05,99.32,284.71,96.37,285.63c-3.93,0-101.28,0.91-216.33,1.83l-209.45,1.83L2813.45,4998.97z"/>
		<path class="st0" d="M3611.92,4716.08c5.9-18.25,402.18-1130.65,562.47-1581.44c80.63-225.4,259.6-725.48,396.28-1111.48
			l249.77-699.92h189.78H5200v1701.9v1701.9h-796.5C3771.22,4727.03,3607.98,4724.3,3611.92,4716.08z"/>
	</g>
</g>
</svg>
