<?xml version="1.0" encoding="utf-8"?>
<!-- Generator: Adobe Adobe Illustrator 24.2.0, SVG Export Plug-In . SVG Version: 6.00 Build 0)  -->
<svg version="1.1" id="Layer_1" xmlns="http://www.w3.org/2000/svg" xmlns:xlink="http://www.w3.org/1999/xlink" x="0px" y="0px"
	 viewBox="0 0 640 480" style="enable-background:new 0 0 640 480;" xml:space="preserve">
<style type="text/css">
	.st0{fill:#c6c7cb;}
</style>
<g>
	<g>
		<path class="st0" d="M316.46,63.01c-0.82,0.26-1.77,0.52-2.1,0.58c-0.33,0.03-0.69,0.16-0.79,0.26c-0.1,0.11-0.46,0.19-0.77,0.19
			c-0.33,0-0.64,0.11-0.72,0.24c-0.08,0.13-0.51,0.29-0.97,0.37c-0.9,0.13-1.36,0.26-2,0.52c-1.07,0.42-2.28,0.71-3.25,0.76
			c-0.62,0.03-1.1,0.16-1.1,0.26c0,0.11-0.33,0.21-0.74,0.21c-0.43,0-0.82,0.11-0.9,0.24c-0.08,0.11-0.56,0.29-1.1,0.37
			c-1.23,0.21-1.58,0.29-2.41,0.66c-1.18,0.5-3.3,1.08-3.3,0.89c0-0.08-0.13-0.03-0.31,0.16c-0.18,0.19-0.56,0.31-0.87,0.31
			c-0.33,0-0.64,0.11-0.72,0.24c-0.08,0.11-0.56,0.29-1.1,0.37c-1.07,0.19-1.56,0.29-2.12,0.52c-1.23,0.47-3.35,1.23-3.53,1.23
			c-0.43,0.05-1.48,0.31-1.97,0.52c-0.46,0.19-1.79,0.55-1.97,0.52c-0.05,0-1.07,0.34-2.3,0.76c-1.2,0.42-2.25,0.71-2.33,0.66
			c-0.05-0.08-0.23,0.05-0.38,0.24c-0.26,0.29-0.1,0.42,0.79,0.71c0.59,0.19,1.3,0.42,1.58,0.52c0.28,0.13,1.15,0.29,1.92,0.37
			c0.77,0.08,1.87,0.29,2.43,0.45c0.56,0.13,1.26,0.31,1.54,0.37c0.56,0.13,3.61,1.02,4.22,1.23c0.21,0.08,1.26,0.34,2.3,0.6
			c1.05,0.24,2.1,0.5,2.3,0.6c0.21,0.08,0.74,0.19,1.15,0.24c0.43,0.08,0.82,0.24,0.85,0.37c0.05,0.13,0.18,0.19,0.31,0.11
			c0.13-0.08,0.49-0.03,0.82,0.11c0.33,0.13,1.1,0.37,1.74,0.55c0.64,0.19,1.33,0.37,1.54,0.45c0.21,0.05,0.38,0.11,0.38,0.11
			s0.97,0.29,2.18,0.66c1.2,0.37,2.41,0.71,2.69,0.78c0.43,0.08,1.84,0.52,3.46,1.1c0.21,0.08,0.62,0.16,0.9,0.19
			c0.28,0.03,0.97,0.24,1.54,0.47c1.28,0.5,3.56,1.15,4.74,1.36c0.49,0.08,1.13,0.26,1.41,0.37c0.28,0.13,1.2,0.42,2.05,0.68
			c0.85,0.26,2,0.6,2.56,0.81c0.56,0.19,1.56,0.47,2.25,0.66c0.66,0.21,1.2,0.47,1.2,0.6s0.08,0.19,0.15,0.08
			c0.08-0.08,1.1,0.19,2.25,0.58c1.13,0.42,2.71,0.94,3.48,1.18s1.58,0.52,1.79,0.6c1.38,0.55,3.86,1.47,4.74,1.71
			c0.56,0.16,1.13,0.39,1.28,0.5c0.13,0.13,0.49,0.24,0.82,0.24c0.33,0,0.59,0.13,0.59,0.29s0.15,0.24,0.36,0.16
			c0.18-0.08,0.62,0.05,0.94,0.29c0.33,0.24,0.62,0.39,0.62,0.37c0-0.16,1.51,0.26,1.79,0.5c0.15,0.11,0.31,0.19,0.38,0.19
			c0.26,0,2.46,0.6,2.94,0.84c0.28,0.13,1.15,0.42,1.92,0.68c0.77,0.24,1.54,0.52,1.66,0.6c0.15,0.11,0.94,0.39,1.79,0.68
			c0.85,0.26,1.66,0.58,1.79,0.66c0.15,0.11,1.58,0.68,3.2,1.31c1.61,0.6,3.18,1.21,3.46,1.31c0.28,0.1,0.92,0.37,1.41,0.52
			c0.49,0.19,1.71,0.68,2.69,1.13c1,0.42,2.02,0.86,2.3,0.97c2.1,0.84,3.53,1.36,4.74,1.73c0.77,0.24,1.82,0.63,2.3,0.89
			c0.49,0.26,1.02,0.5,1.15,0.52c0.15,0.03,0.62,0.19,1.02,0.39c0.66,0.29,1.54,0.66,1.92,0.78c0.43,0.16,1.77,0.73,2.41,1.08
			c0.41,0.21,0.85,0.37,0.94,0.37c0.21,0,4.3,1.89,5.14,2.36c0.26,0.16,0.56,0.26,0.69,0.26s0.97,0.34,1.87,0.76
			c0.9,0.42,2.05,0.92,2.58,1.1c0.51,0.19,0.94,0.45,0.94,0.55s0.18,0.21,0.38,0.21c0.21,0,0.59,0.11,0.85,0.24
			c0.23,0.13,0.9,0.37,1.46,0.55c0.56,0.19,1.84,0.71,2.82,1.18c3.58,1.71,4.33,1.94,4.71,1.63c0.21-0.19,0.38-0.26,0.38-0.21
			c0.02,0.05,0.54-0.08,1.18-0.26s1.2-0.34,1.28-0.37c0.08,0,0.38-0.16,0.66-0.34c0.31-0.16,0.62-0.24,0.69-0.13
			c0.1,0.08,0.31,0.03,0.49-0.11c0.18-0.13,0.92-0.42,1.61-0.6c0.72-0.19,1.38-0.42,1.51-0.55c0.13-0.11,0.38-0.13,0.56-0.05
			c0.21,0.08,0.51,0.03,0.69-0.13c0.15-0.16,0.85-0.34,1.54-0.45c0.66-0.11,1.28-0.29,1.36-0.42c0.08-0.13,0.23-0.19,0.33-0.13
			c0.1,0.08,0.77-0.08,1.46-0.34c0.69-0.26,1.74-0.58,2.33-0.68c0.62-0.11,1.15-0.29,1.26-0.42c0.08-0.13,0.36-0.24,0.62-0.24
			c0.28,0,1.38-0.29,2.48-0.66c1.1-0.37,2.18-0.71,2.38-0.73c0.21-0.05,0.51-0.13,0.64-0.24c0.15-0.08,0.77-0.24,1.41-0.34
			c0.62-0.11,1.3-0.29,1.54-0.39c0.56-0.31,3.18-1.08,3.81-1.13c0.28-0.03,0.54-0.13,0.54-0.24c0-0.11,0.21-0.21,0.46-0.21
			c0.23,0,0.92-0.19,1.51-0.39c0.59-0.21,1.43-0.42,1.87-0.45c0.41-0.03,0.77-0.16,0.77-0.26c0-0.1,0.21-0.21,0.49-0.21
			c0.26,0,0.87-0.16,1.33-0.37c0.49-0.21,0.94-0.39,1.07-0.39c0.31-0.05,0.56-0.08,0.82-0.16c0.15-0.03,0.41-0.08,0.59-0.08
			c0.54-0.08,0.33-0.73-0.31-1.05c-0.33-0.16-1.02-0.37-1.54-0.47c-0.51-0.08-1-0.26-1.07-0.39s-0.36-0.24-0.64-0.24
			c-0.26,0-0.49-0.11-0.49-0.26c0-0.13-0.08-0.24-0.18-0.21c-0.13,0.03-0.49-0.11-0.85-0.24c-1.15-0.5-2.18-0.94-2.3-1
			c-0.21-0.08-1.13-0.45-1.84-0.76c-0.41-0.16-0.72-0.37-0.72-0.45s-0.15-0.16-0.31-0.16c-0.18,0-0.77-0.19-1.28-0.42
			c-1.41-0.66-2.51-1.1-3.53-1.49c-0.49-0.19-1.3-0.5-1.79-0.71s-1.13-0.47-1.41-0.6c-0.28-0.11-1.18-0.52-2-0.89
			c-0.82-0.37-1.61-0.68-1.79-0.68s-0.43-0.11-0.56-0.24c-0.21-0.16-3.91-1.47-4.99-1.73c-0.31-0.08-1.23-0.5-2.51-1.08
			c-0.74-0.34-1.46-0.63-1.58-0.63c-0.15,0-0.46-0.11-0.72-0.24c-0.54-0.31-4.65-1.89-5.09-1.97c-0.18-0.03-0.41-0.13-0.49-0.24
			c-0.1-0.11-0.41-0.19-0.66-0.19c-0.26,0-0.46-0.08-0.46-0.21c0-0.11-0.72-0.42-1.58-0.71c-0.9-0.26-1.79-0.58-2-0.68
			c-0.33-0.16-0.97-0.42-1.54-0.63c-0.08-0.03-0.33-0.13-0.56-0.21c-0.64-0.24-1.2-0.42-1.36-0.45c-0.08,0-0.49-0.19-0.9-0.39
			c-0.43-0.24-0.77-0.34-0.77-0.29c0,0.08-0.74-0.21-1.66-0.66c-0.9-0.42-2-0.76-2.41-0.76c-0.41,0-0.85-0.13-0.92-0.26
			c-0.08-0.16-0.41-0.26-0.74-0.26c-0.31,0-0.66-0.08-0.77-0.21c-0.1-0.11-0.28-0.19-0.36-0.19c-0.15,0-1.56-0.5-3.12-1.1
			c-0.21-0.08-0.51-0.19-0.66-0.21c-0.15-0.05-0.69-0.26-1.15-0.47c-0.72-0.34-1.64-0.68-2.28-0.84c-1.23-0.34-1.71-0.5-1.92-0.66
			c-0.21-0.16-0.9-0.39-1.92-0.66c-0.59-0.13-2.28-0.78-2.69-1c-0.28-0.16-0.56-0.31-0.64-0.31c-1.23-0.31-1.74-0.47-2.1-0.68
			c-0.26-0.13-0.69-0.24-0.97-0.24c-0.28,0-0.51-0.11-0.51-0.21c0-0.11-0.21-0.21-0.43-0.24c-0.41-0.03-2.43-0.66-3.4-1.05
			c-0.21-0.08-0.49-0.19-0.64-0.24c-0.13-0.03-0.59-0.21-1.02-0.39c-0.9-0.39-0.77-0.34-2.05-0.58c-0.56-0.13-1.58-0.39-2.3-0.6
			c-1.71-0.55-1.77-0.55-2-0.6c-0.1,0-0.59-0.19-1.07-0.39c-0.51-0.24-0.92-0.39-0.97-0.39c-0.02,0-0.26-0.05-0.49-0.13
			c-0.26-0.08-0.66-0.24-0.9-0.31c-0.26-0.08-0.51-0.16-0.59-0.16c-0.08,0-0.41-0.13-0.77-0.26c-0.36-0.13-0.85-0.29-1.1-0.34
			c-0.26-0.05-1.64-0.47-3.07-0.94c-2.74-0.86-3.18-1-3.37-1.02c-0.08,0-0.49-0.19-0.9-0.39c-0.41-0.21-0.82-0.39-0.9-0.37
			c-0.23,0.03-1.79-0.34-2.05-0.5c-0.13-0.11-0.41-0.19-0.59-0.21c-0.21-0.05-0.54-0.16-0.77-0.26c-0.23-0.11-0.62-0.21-0.82-0.24
			c-0.21-0.03-0.56-0.11-0.77-0.19c-0.21-0.08-0.9-0.29-1.54-0.47c-0.64-0.16-1.33-0.42-1.56-0.52c-0.23-0.13-0.87-0.31-1.41-0.42
			c-0.56-0.08-1.15-0.29-1.3-0.45c-0.18-0.13-0.33-0.19-0.33-0.11s-0.38,0.03-0.82-0.11c-0.46-0.16-1.41-0.37-2.12-0.5
			c-0.69-0.13-1.74-0.34-2.3-0.52c-1.18-0.31-1.15-0.31-2.69-0.78c-0.64-0.19-1.3-0.39-1.51-0.42c-0.21-0.05-0.66-0.16-1.02-0.26
			c-0.36-0.11-0.72-0.21-0.79-0.24c-0.08-0.03-0.54-0.13-1.02-0.24c-0.49-0.11-1.38-0.37-2-0.58
			C320.02,62.33,318.28,62.41,316.46,63.01z"/>
		<path class="st0" d="M235.69,89.17c-0.64,0.26-1.38,0.55-1.66,0.66c-0.79,0.31-1.46,0.6-2.43,1.02c-2.05,0.92-3.35,1.47-3.53,1.52
			c-0.33,0.08-0.94,0.29-1.46,0.5c-0.59,0.24-1.46,0.6-1.66,0.66c-0.08,0.03-0.56,0.24-1.13,0.47c-0.54,0.24-1.05,0.45-1.1,0.45
			c-0.08,0-0.49,0.16-0.92,0.37c-0.46,0.19-1.69,0.66-2.74,1c-3.12,1.08-5.25,1.89-5.32,2.1c-0.05,0.13-0.28,0.21-0.54,0.21
			c-0.23,0-0.54,0.11-0.66,0.21c-0.21,0.19-1.66,0.81-5.12,2.15c-0.28,0.13-0.94,0.42-1.51,0.66c-0.54,0.24-1.13,0.47-1.28,0.52
			c-0.15,0.03-0.85,0.31-1.56,0.63c-0.69,0.31-1.51,0.68-1.79,0.81c-0.28,0.11-0.92,0.39-1.41,0.6c-2.92,1.28-4.07,1.73-4.99,1.91
			c-1,0.19-1.87,0.76-1.58,1.08c0.08,0.08,0.49,0.19,0.87,0.21c0.38,0.05,1.61,0.37,2.69,0.73c1.07,0.37,2.35,0.73,2.82,0.84
			c0.46,0.11,1.36,0.37,2,0.58c0.64,0.21,1.28,0.42,1.41,0.45c0.15,0.03,0.66,0.19,1.15,0.34c0.87,0.29,1.87,0.58,5.25,1.52
			c0.85,0.26,1.77,0.55,2.05,0.71c0.31,0.13,0.77,0.29,1.02,0.34c0.28,0.05,0.51,0.11,0.51,0.13s0.21,0.08,0.43,0.13
			c0.66,0.13,4.1,1.18,4.76,1.47c0.33,0.13,0.82,0.24,1.07,0.24c0.28,0,0.51,0.11,0.51,0.21c0,0.11,0.31,0.24,0.66,0.26
			c0.36,0.03,0.79,0.13,0.94,0.24c0.18,0.11,0.59,0.24,0.94,0.29c0.36,0.05,1.46,0.31,2.43,0.6c1,0.31,2.02,0.6,2.3,0.68
			c0.28,0.05,0.74,0.21,1.02,0.31c0.85,0.34,3.94,1.39,4.27,1.44c0.18,0.05,0.51,0.16,0.72,0.24c0.21,0.08,1.13,0.39,2.05,0.71
			c0.92,0.32,1.84,0.63,2.05,0.71c0.54,0.24,0.54,0.24,1.61,0.45c0.51,0.13,0.94,0.34,0.94,0.5s0.08,0.21,0.15,0.11
			c0.15-0.16,2.61,0.66,3.48,1.15c0.26,0.13,0.64,0.24,0.85,0.24s0.59,0.11,0.85,0.26c0.23,0.13,1.58,0.63,2.99,1.08
			c1.41,0.47,2.69,0.92,2.82,1.02c0.15,0.11,0.94,0.34,1.79,0.52s1.66,0.39,1.79,0.5c0.15,0.11,1.3,0.55,2.56,0.97
			c1.28,0.42,2.35,0.84,2.38,0.94c0.05,0.13,0.26,0.21,0.43,0.21c0.31,0,3.22,1.08,5.25,1.91c0.36,0.13,0.87,0.34,1.15,0.45
			s1.71,0.68,3.2,1.28c1.48,0.58,2.84,1.08,3.02,1.08c0.15,0,0.31,0.11,0.31,0.24c0,0.16,0.21,0.24,0.46,0.24
			c0.23,0,1.1,0.29,1.92,0.68c0.79,0.37,1.51,0.68,1.58,0.68c0.08,0,0.54,0.19,1.05,0.39c0.51,0.21,1.07,0.39,1.26,0.39
			s0.77,0.19,1.3,0.42c0.56,0.24,1.28,0.55,1.64,0.71c0.36,0.16,0.69,0.29,0.77,0.31c0.41,0.13,1.77,0.73,2.41,1.08
			c0.41,0.21,0.87,0.37,1,0.37c0.15,0,0.9,0.31,1.69,0.68c4.5,2.18,6.37,2.96,6.7,2.88c0.1,0,0.41,0.21,0.72,0.47
			c0.31,0.29,0.54,0.39,0.54,0.29c0-0.13,0.13-0.11,0.31,0.08c0.18,0.19,0.51,0.31,0.77,0.31s0.46,0.11,0.46,0.26
			c0,0.13,0.15,0.26,0.36,0.26s1.15,0.42,2.12,0.92c0.94,0.5,1.92,0.92,2.18,0.92c0.23,0,0.85,0.24,1.41,0.5
			c1.94,1.02,4.37,2.12,4.65,2.12c0.15,0,0.28,0.11,0.28,0.26c0,0.13,0.18,0.26,0.38,0.26c0.21,0,0.38,0.11,0.38,0.26
			c0,0.13,0.21,0.26,0.46,0.26c0.23,0,1.05,0.37,1.82,0.78c0.77,0.45,1.54,0.78,1.74,0.78c0.18,0,0.33,0.11,0.33,0.26
			c0,0.13,0.23,0.26,0.49,0.26c0.28,0,0.54,0.08,0.59,0.19c0.05,0.13,0.97,0.66,2.07,1.21c2.38,1.18,1.87,1.26,7.04-1.15
			c0.87-0.42,1.66-0.76,1.74-0.76s1.48-0.66,3.12-1.47c1.64-0.81,3.22-1.57,3.5-1.68c0.28-0.13,1.2-0.55,2.05-0.94
			c0.85-0.42,1.61-0.73,1.71-0.76c0.08,0,0.26-0.08,0.36-0.21c0.1-0.11,0.38-0.19,0.64-0.19s1.13-0.34,1.94-0.76
			s1.94-0.94,2.51-1.21c0.56-0.24,1.43-0.63,1.92-0.86c0.49-0.21,0.94-0.42,1.02-0.45c0.36-0.11,1.79-0.76,3.43-1.55
			c2.99-1.44,3.86-1.83,3.99-1.86c0.41-0.11,2.51-1.08,5.29-2.38c1-0.5,2.07-0.89,2.35-0.89c0.28,0,0.59-0.13,0.66-0.26
			c0.1-0.16,0.28-0.21,0.41-0.13c0.13,0.11,0.23,0.03,0.23-0.11c0-0.16,0.18-0.29,0.38-0.29c0.59,0,1.66-0.58,1.66-0.89
			c0-0.16-1.07-0.86-2.35-1.55c-1.3-0.68-2.66-1.41-3.02-1.63c-0.36-0.21-1.43-0.76-2.43-1.21c-2.25-1-4.1-1.89-6.4-2.99
			c-0.97-0.47-2.3-1-2.92-1.18c-0.62-0.16-1.74-0.6-2.48-0.94c-0.74-0.34-1.46-0.63-1.61-0.63c-0.15,0-0.66-0.24-1.18-0.52
			c-0.49-0.29-0.97-0.52-1.1-0.52c-0.1,0-0.51-0.16-0.94-0.37c-1.1-0.55-2.41-1.1-3.58-1.49c-0.56-0.21-1.1-0.47-1.2-0.63
			c-0.1-0.13-0.21-0.19-0.21-0.08c0,0.19-0.74-0.11-4.55-1.78c-0.46-0.21-1-0.37-1.2-0.37c-0.21,0-0.38-0.11-0.38-0.26
			c0-0.13-0.08-0.24-0.18-0.21c-0.23,0.05-1.79-0.45-3.02-0.97c-0.41-0.19-1.1-0.45-1.48-0.63c-0.38-0.16-0.97-0.29-1.3-0.29
			c-0.31,0-0.66-0.08-0.77-0.19c-0.08-0.11-0.41-0.21-0.72-0.26c-0.31-0.05-0.64-0.19-0.72-0.29c-0.08-0.11-0.31-0.21-0.51-0.26
			c-0.21-0.05-0.72-0.26-1.15-0.45c-0.41-0.19-1.33-0.55-2.05-0.78c-0.69-0.24-1.51-0.55-1.79-0.66c-0.56-0.24-1.64-0.6-2.05-0.68
			c-0.15-0.03-0.85-0.31-1.54-0.63c-0.69-0.32-1.38-0.6-1.54-0.63c-0.43-0.08-1.51-0.45-2.05-0.68c-0.59-0.26-1.51-0.58-1.58-0.55
			c-0.05,0.03-0.85-0.29-1.79-0.66c-0.97-0.37-1.87-0.71-2.05-0.73c-0.18-0.03-0.41-0.13-0.49-0.24c-0.1-0.11-0.41-0.19-0.66-0.19
			c-0.26,0-0.46-0.13-0.46-0.31c0-0.16-0.08-0.24-0.15-0.13c-0.1,0.08-0.54,0-0.97-0.19c-0.43-0.19-0.87-0.34-1-0.37
			c-0.9-0.13-10.52-3.27-10.9-3.57c-0.21-0.16-0.38-0.26-0.38-0.21c-0.02,0.13-1.46-0.21-2.07-0.47c-0.54-0.24-1.79-0.63-1.79-0.55
			c0,0-0.79-0.29-1.79-0.66c-1.92-0.71-2.41-0.86-3.53-1.08c-0.38-0.08-0.77-0.24-0.85-0.37c-0.08-0.13-0.38-0.24-0.72-0.24
			c-0.31,0-0.66-0.08-0.77-0.19c-0.08-0.11-0.31-0.21-0.49-0.24c-0.74-0.11-2.66-0.71-3.37-1.02c-0.66-0.31-2.84-0.97-3.2-0.97
			c-0.08,0-0.54-0.16-1.02-0.34c-0.49-0.19-1.23-0.45-1.66-0.55c-0.41-0.11-0.82-0.21-0.9-0.24c-0.15-0.05-1.94-0.42-2.64-0.55
			c-0.23-0.03-0.56-0.16-0.69-0.24c-0.13-0.08-0.46-0.21-0.69-0.26c-0.26-0.08-0.92-0.24-1.48-0.39c-0.56-0.16-1.3-0.34-1.64-0.42
			c-0.33-0.08-0.82-0.24-1.1-0.39c-0.26-0.13-0.46-0.21-0.46-0.13c0,0.05-0.54-0.08-1.2-0.29c-0.69-0.21-1.46-0.42-1.71-0.47
			c-0.28-0.08-1.02-0.29-1.66-0.5c-1.07-0.34-2.18-0.63-2.64-0.68c-0.1,0-0.66-0.19-1.23-0.39s-1.07-0.37-1.15-0.37
			c-0.43-0.03-3.15-0.71-3.97-1.02c-0.46-0.16-1.02-0.26-2.51-0.47c-0.59-0.08-1.15-0.26-1.23-0.39
			C237.4,88.59,237.04,88.65,235.69,89.17z"/>
		<path class="st0" d="M145.24,127.95c-0.69,0.37-1.36,0.76-1.43,0.89c-0.08,0.13-0.23,0.21-0.33,0.19c-0.1,0-1.15,0.45-2.35,1.02
			c-1.2,0.6-2.3,1.08-2.43,1.08s-0.23,0.11-0.23,0.26c0,0.13-0.08,0.24-0.18,0.21c-0.13-0.03-0.97,0.31-1.92,0.78
			c-0.94,0.47-1.82,0.84-1.9,0.84c-0.1-0.03-0.26,0.05-0.33,0.21c-0.18,0.26-3.43,1.89-3.81,1.89c-0.13,0-1,0.37-1.87,0.84
			c-0.9,0.47-1.69,0.84-1.77,0.86c-0.08,0-1.13,0.58-2.35,1.26c-1.23,0.71-2.33,1.26-2.43,1.26s-0.38,0.19-0.62,0.39
			c-0.23,0.21-0.49,0.29-0.56,0.19c-0.1-0.08-0.18-0.03-0.18,0.13c0,0.19-0.08,0.29-0.18,0.26c-0.13-0.03-0.92,0.31-1.79,0.78
			c-0.9,0.47-1.69,0.84-1.77,0.81c-0.1,0-0.26,0.08-0.33,0.21c-0.08,0.13-0.56,0.45-1.05,0.68c-1.18,0.6-1.9,1.05-2.07,1.31
			c-0.08,0.13-0.21,0.21-0.26,0.16c-0.21-0.13-5.38,2.36-5.63,2.72c-0.08,0.13-0.21,0.21-0.26,0.16c-0.15-0.11-2.1,0.86-2.46,1.23
			c-0.15,0.16-0.64,0.45-1.07,0.63c-0.43,0.19-0.79,0.45-0.79,0.6c0,0.16-0.08,0.21-0.15,0.11c-0.08-0.08-0.51,0.05-0.94,0.31
			c-0.46,0.26-1.46,0.81-2.22,1.23c-0.77,0.42-1.48,0.86-1.58,1.02c-0.1,0.13-0.21,0.19-0.21,0.08c0-0.21-1.97,0.84-3.12,1.65
			c-0.36,0.29-0.79,0.5-0.94,0.5c-0.15,0-0.28,0.11-0.28,0.21c0,0.11-0.31,0.24-0.69,0.26c-0.38,0.03-0.74,0.16-0.82,0.26
			c-0.08,0.11-1.02,0.66-2.07,1.21c-1.05,0.58-2,1.13-2.07,1.26c-0.08,0.16-0.23,0.24-0.33,0.24c-0.33-0.05-2.99,1.52-3.91,2.33
			c-0.18,0.16-0.33,0.21-0.33,0.16c0-0.08-0.38,0.08-0.82,0.34c-0.46,0.26-1.54,0.86-2.38,1.34c-0.85,0.47-1.94,1.1-2.43,1.39
			c-0.49,0.26-1.05,0.63-1.2,0.76c-0.18,0.16-0.33,0.19-0.33,0.05s-0.1-0.11-0.21,0.05c-0.1,0.16-0.74,0.55-1.46,0.89
			c-0.69,0.34-1.33,0.68-1.41,0.76c-0.21,0.24-1.05,0.73-2.48,1.47c-0.72,0.37-1.41,0.78-1.48,0.92c-0.1,0.16-0.28,0.21-0.41,0.13
			c-0.13-0.11-0.23-0.05-0.23,0.08c0,0.13-0.21,0.31-0.43,0.42c-0.26,0.08-0.79,0.39-1.23,0.68c-0.41,0.29-0.94,0.6-1.15,0.71
			c-0.21,0.08-0.43,0.24-0.51,0.31c-0.13,0.16-0.46,0.37-2.54,1.55c-0.64,0.37-1.26,0.76-1.33,0.89c-0.08,0.16-0.26,0.26-0.38,0.26
			c-0.33,0.03-0.97,0.29-1.13,0.47c-0.08,0.08-0.9,0.52-1.82,0.97s-1.84,0.97-2.05,1.15c-0.41,0.39-0.79,0.63-2.99,1.86
			c-0.79,0.42-1.77,1.02-2.12,1.28c-0.36,0.26-0.74,0.42-0.85,0.31c-0.08-0.08-0.15-0.05-0.15,0.11c0,0.13-0.51,0.52-1.15,0.84
			c-0.64,0.31-1.15,0.71-1.15,0.84c0,0.16-0.1,0.21-0.23,0.13c-0.13-0.08-0.36,0.03-0.54,0.24c-0.15,0.21-0.94,0.73-1.74,1.21
			c-0.79,0.45-1.54,0.94-1.61,1.08c-0.08,0.13-0.21,0.24-0.26,0.19c-0.1-0.05-3.15,1.41-3.94,1.94c-0.28,0.16-1.38,0.92-2.46,1.68
			c-1.1,0.73-2.05,1.28-2.12,1.21c-0.08-0.11-0.15-0.03-0.15,0.13c0,0.19-0.1,0.31-0.23,0.31c-0.13,0-1.18,0.58-2.3,1.31
			c-1.13,0.71-2.18,1.31-2.33,1.31c-0.13,0-0.26,0.08-0.26,0.21c0,0.11-0.43,0.42-0.94,0.71c-0.51,0.29-1.05,0.66-1.2,0.78
			c-0.15,0.16-0.74,0.5-1.3,0.76c-0.56,0.29-2.38,1.36-4.04,2.44c-1.69,1.05-3.12,1.91-3.22,1.91c-0.08,0-0.46,0.26-0.82,0.58
			c-0.69,0.66-1.1,0.94-2.64,1.83c-1.28,0.78-1.51,0.92-3.53,2.23c-0.94,0.63-1.87,1.13-2.02,1.13c-0.33,0-3.58,2.3-3.86,2.72
			c-0.1,0.16-0.21,0.21-0.21,0.11c0-0.21-3.61,2.1-3.86,2.49c-0.08,0.13-0.23,0.19-0.31,0.13c-0.1-0.03-0.41,0.13-0.69,0.37
			c-0.28,0.26-0.64,0.47-0.79,0.47c-0.54,0-0.05,0.66,0.82,1.1c1.69,0.86,4.55,2.12,4.97,2.18c0.15,0.03,0.72,0.24,1.28,0.47
			c0.56,0.26,1.07,0.42,1.15,0.39c0.08-0.05,0.49,0.16,0.9,0.47c0.97,0.66,2.2,1.21,2.35,1.05c0.08-0.08,0.31,0.05,0.51,0.26
			c0.21,0.21,0.49,0.31,0.62,0.24c0.13-0.11,0.23-0.03,0.23,0.11c0,0.16,0.18,0.29,0.38,0.29c0.21,0,0.59,0.11,0.85,0.24
			c0.23,0.16,1.18,0.6,2.1,1.02c0.92,0.42,2.3,1.1,3.1,1.47c0.79,0.37,1.56,0.68,1.69,0.68c0.15,0,0.41,0.19,0.59,0.39
			s0.41,0.34,0.51,0.26c0.13-0.08,0.31,0,0.38,0.16c0.1,0.13,0.33,0.21,0.54,0.13c0.21-0.08,0.36-0.05,0.36,0.05
			c0,0.13,0.43,0.39,0.94,0.6c0.54,0.21,1.58,0.71,2.38,1.13c0.77,0.39,1.61,0.78,1.87,0.84c0.54,0.11,2.02,0.78,6.78,3.17
			l3.43,1.71l0.74-0.55c0.38-0.29,0.79-0.55,0.85-0.55c0.08,0,0.36-0.19,0.59-0.39c0.26-0.21,0.56-0.39,0.69-0.37
			c0.13,0,0.31-0.08,0.38-0.21c0.21-0.29,2-1.65,2.2-1.65c0.08,0,0.38-0.24,0.69-0.52c0.31-0.29,0.72-0.52,0.9-0.52
			c0.21,0,0.66-0.29,1.05-0.66c0.38-0.37,0.82-0.66,1-0.66c0.15,0,0.33-0.11,0.38-0.21c0.1-0.26,3.27-2.41,3.53-2.41
			c0.13,0,0.26-0.11,0.31-0.21c0.05-0.13,0.9-0.76,1.87-1.39c1-0.63,2.05-1.39,2.38-1.71c0.33-0.29,1.54-1.13,2.69-1.81
			c1.15-0.71,2.69-1.65,3.37-2.1c0.72-0.47,1.79-1.18,2.41-1.57c0.64-0.39,1.36-0.94,1.64-1.21c0.31-0.26,0.74-0.55,1-0.66
			c0.26-0.08,0.46-0.24,0.46-0.37c0-0.11,0.21-0.26,0.46-0.37c0.43-0.13,1.36-0.68,1.58-0.94c0.33-0.37,2.97-1.97,3.12-1.91
			c0.13,0.05,0.21-0.03,0.21-0.13c0-0.13,1.15-0.92,2.56-1.75c1.41-0.86,2.56-1.65,2.56-1.75c0-0.13,0.15-0.21,0.36-0.21
			c0.21,0,0.54-0.16,0.72-0.34c0.18-0.16,0.77-0.55,1.3-0.84c0.51-0.29,0.94-0.58,0.94-0.68s0.21-0.26,0.46-0.34
			c0.82-0.31,6.01-3.8,6.14-4.14c0.05-0.13,0.23-0.21,0.41-0.21c0.15,0,0.72-0.29,1.23-0.66c0.51-0.37,1.07-0.66,1.23-0.66
			c0.18,0,1.77-1,3.58-2.23c1.82-1.23,3.4-2.23,3.53-2.23s0.43-0.24,0.69-0.52c0.26-0.29,0.51-0.47,0.56-0.42s1.33-0.71,2.84-1.71
			s3.25-2.07,3.89-2.38c0.64-0.34,1.2-0.68,1.23-0.81c0.05-0.11,0.23-0.19,0.36-0.19c0.15,0,1.2-0.6,2.3-1.31
			c1.1-0.73,2.1-1.31,2.22-1.31c0.1,0,0.87-0.5,1.71-1.1c0.82-0.58,1.97-1.34,2.54-1.65c0.56-0.31,1.43-0.78,1.92-1.08
			c0.49-0.26,0.94-0.58,0.97-0.71c0.05-0.11,0.23-0.19,0.41-0.19s0.56-0.24,0.87-0.52c0.31-0.29,0.59-0.52,0.62-0.52
			c0.43-0.03,1.23-0.37,1.23-0.55c0-0.11,0.46-0.37,1.02-0.52c0.56-0.19,1.02-0.39,1.02-0.47c0-0.11,0.43-0.39,0.97-0.68
			c0.51-0.29,1-0.58,1.07-0.66c0.13-0.13,0.74-0.47,2.69-1.57c0.43-0.24,1.87-1.08,3.2-1.89c4.55-2.75,6.93-4.12,7.49-4.3
			c0.62-0.19,1.82-0.86,3.89-2.12c2.35-1.44,3.71-2.2,3.81-2.12c0.05,0.05,0.33-0.13,0.59-0.39c0.28-0.24,0.59-0.37,0.66-0.26
			c0.1,0.08,0.18,0.05,0.18-0.08c0-0.13,0.51-0.47,1.15-0.76c0.64-0.29,1.15-0.58,1.15-0.66c0-0.08,0.51-0.37,1.15-0.66
			c0.64-0.29,1.15-0.6,1.15-0.73c0-0.11,0.15-0.19,0.36-0.19c0.21,0,0.41-0.08,0.46-0.21c0.05-0.11,0.82-0.55,1.74-1
			c2.74-1.36,7.17-3.65,9.09-4.69c5.45-2.96,11.69-6.16,11.97-6.16c0.15,0,1.1-0.42,2.07-0.92c0.94-0.5,1.92-0.92,2.1-0.92
			c0.21,0,0.36-0.11,0.36-0.24c0-0.21,0.9-0.58,1.1-0.47c0.05,0.03,0.28-0.16,0.54-0.42c0.26-0.24,0.54-0.39,0.66-0.31
			c0.12,0.08,0.26,0.03,0.31-0.08c0.02-0.11,0.85-0.55,1.82-0.97c1.71-0.73,2.25-1.44,1.13-1.44c-0.33,0-0.69-0.08-0.79-0.19
			c-0.08-0.11-0.31-0.21-0.49-0.24c-0.18-0.05-0.64-0.16-1.07-0.24c-0.41-0.08-0.9-0.29-1.07-0.45c-0.18-0.16-0.33-0.19-0.33-0.11
			c0,0.11-0.26,0.03-0.56-0.16c-0.33-0.19-0.64-0.34-0.72-0.34c-0.08-0.03-1-0.31-2.05-0.66c-1.05-0.34-1.97-0.66-2.05-0.66
			c-0.92-0.24-1.71-0.5-1.92-0.63c-0.33-0.19-0.51-0.24-2.1-0.52c-0.74-0.16-1.51-0.34-1.66-0.47c-0.18-0.11-0.43-0.21-0.59-0.24
			c-0.13-0.03-1.05-0.29-2.05-0.63c-0.97-0.31-2.07-0.63-2.43-0.68c-0.33-0.08-0.74-0.24-0.9-0.34c-0.13-0.13-0.46-0.19-0.69-0.16
			c-0.26,0.05-0.46-0.03-0.46-0.16c0-0.13-0.21-0.24-0.43-0.24c-0.26,0-1.02-0.24-1.74-0.5c-0.69-0.26-1.36-0.5-1.46-0.52
			c-0.13-0.03-0.23-0.03-0.26-0.05c-0.05,0-0.36-0.05-0.69-0.13c-0.36-0.05-0.77-0.24-0.97-0.39c-0.18-0.16-0.33-0.24-0.33-0.13
			c0,0.08-0.41,0-0.9-0.21c-0.51-0.24-0.92-0.39-0.97-0.39c-0.18,0.05-1.79-0.42-3.07-0.86c-0.79-0.26-1.77-0.58-2.15-0.63
			c-0.38-0.08-0.79-0.21-0.94-0.31c-0.15-0.08-0.43-0.19-0.62-0.21c-0.21-0.05-0.54-0.16-0.77-0.26c-0.23-0.11-0.62-0.21-0.82-0.21
			c-0.21-0.03-0.51-0.13-0.69-0.24C147.97,127.01,146.57,127.27,145.24,127.95z"/>
		<path class="st0" d="M491.28,127.29c-0.05,0.08-0.41,0.19-0.74,0.26c-0.36,0.08-1.69,0.42-2.99,0.76c-1.3,0.37-2.41,0.58-2.51,0.5
			c-0.08-0.08-0.13,0-0.13,0.16c0,0.19-0.33,0.31-0.77,0.31c-0.41,0-0.77,0.11-0.77,0.24c0,0.13-0.38,0.29-0.82,0.37
			c-0.87,0.13-1.26,0.24-2.69,0.68c-0.46,0.13-0.85,0.19-0.85,0.11c0-0.08-0.15-0.03-0.31,0.13c-0.28,0.21-1.66,0.63-2.3,0.68
			c-0.08,0.03-0.26,0.11-0.36,0.21c-0.1,0.13-0.51,0.21-0.92,0.21c-0.38,0-0.72,0.11-0.72,0.24c0,0.13-0.49,0.34-1.07,0.45
			c-1.23,0.24-1.2,0.24-1.74,0.45c-1.3,0.5-2.76,0.97-3.25,1.05c-0.31,0.05-0.66,0.16-0.74,0.26c-0.1,0.11-0.46,0.19-0.77,0.19
			c-0.33,0-0.64,0.11-0.72,0.24c-0.08,0.13-0.69,0.31-1.36,0.42c-0.66,0.11-1.61,0.34-2.12,0.52c-0.49,0.19-1.54,0.52-2.3,0.76
			c-0.76,0.23-1.64,0.55-1.92,0.68c-0.49,0.21-1.77,0.55-2.05,0.52c-0.08,0-0.49,0.19-0.92,0.42c-1.05,0.55-3.56,1.39-4.12,1.41
			c-0.26,0-0.46,0.11-0.46,0.26c0,0.13-0.28,0.26-0.62,0.26c-0.36,0-0.69,0.11-0.77,0.24c-0.08,0.11-0.49,0.29-0.92,0.39
			c-0.43,0.08-1.56,0.47-2.51,0.84c-0.94,0.39-1.87,0.71-2.02,0.71c-0.18,0-0.33,0.11-0.33,0.24c0,0.11-0.28,0.21-0.62,0.21
			c-0.36,0-0.69,0.11-0.77,0.24c-0.08,0.11-0.51,0.31-0.97,0.42c-1.02,0.24-0.9,0.21-2.1,0.73c-0.56,0.26-1.3,0.52-1.66,0.63
			c-0.36,0.08-0.77,0.24-0.92,0.34c-0.13,0.11-0.66,0.29-1.15,0.39c-1.18,0.26-5.48,1.86-6.7,2.52c-0.26,0.13-0.56,0.24-0.72,0.24
			c-0.15,0-1.02,0.34-1.92,0.78c-0.9,0.42-1.77,0.78-1.92,0.78s-0.46,0.11-0.72,0.24c-0.23,0.13-0.72,0.34-1.07,0.5
			c-0.36,0.13-1.56,0.63-2.69,1.1s-2.15,0.86-2.3,0.92c-0.43,0.11-1.28,0.47-1.41,0.63c-0.15,0.19-1.92,0.89-4.22,1.68
			c-0.85,0.29-2.02,0.76-2.61,1.02c-0.62,0.26-1.18,0.47-1.28,0.47c-0.13,0-0.79,0.31-1.48,0.71c-0.72,0.37-1.33,0.68-1.41,0.66
			c-0.13-0.03-0.77,0.26-3.12,1.36c-0.82,0.37-1.77,0.73-2.12,0.84c-0.36,0.08-0.72,0.26-0.79,0.39c-0.08,0.13-0.36,0.24-0.64,0.24
			c-0.26,0-0.49,0.11-0.49,0.26c0,0.13-0.13,0.26-0.28,0.26c-0.15,0-1.05,0.37-2,0.81c-0.92,0.45-1.92,0.92-2.2,1.02
			c-0.28,0.13-1.38,0.63-2.46,1.15c-1.07,0.5-2.3,1-2.69,1.1c-0.41,0.11-1.26,0.45-1.9,0.78c-0.64,0.31-1.94,0.97-2.94,1.41
			c-0.97,0.45-2,0.94-2.22,1.08c-0.26,0.13-0.64,0.24-0.85,0.24c-0.21,0-0.38,0.11-0.38,0.26c0,0.13-0.1,0.26-0.23,0.26
			s-2.02,0.86-4.17,1.94c-5.17,2.54-6.96,3.38-8.65,4.12c-0.77,0.34-2.46,1.18-3.76,1.86c-1.28,0.68-2.51,1.26-2.74,1.26
			c-0.23,0-0.41,0.11-0.41,0.26c0,0.13-0.23,0.26-0.49,0.26c-0.28,0-0.54,0.11-0.59,0.21c-0.1,0.29-9.24,5.03-9.67,5.03
			c-0.15,0-0.26,0.11-0.26,0.26c0,0.13-0.15,0.26-0.31,0.26c-0.18,0-1.13,0.42-2.1,0.92c-1,0.5-1.92,0.92-2.1,0.92
			c-0.18,0-0.36,0.08-0.41,0.21c-0.02,0.11-1.1,0.71-2.38,1.36c-1.26,0.66-2.35,1.23-2.43,1.31c-0.23,0.24-1.64,1.05-3.33,1.94
			c-0.92,0.47-2.07,1.1-2.56,1.39c-1.05,0.6-3.71,1.99-4.61,2.38c-0.56,0.26-1.64,0.86-4.65,2.62c-0.54,0.31-0.97,0.47-0.97,0.37
			c0-0.11-0.1-0.05-0.21,0.11c-0.1,0.16-0.82,0.63-1.58,1.05c-0.77,0.42-1.43,0.84-1.48,0.94c-0.05,0.13-0.21,0.21-0.36,0.21
			c-0.13,0-0.56,0.21-0.92,0.47c-0.38,0.29-1.33,0.86-2.1,1.28c-0.77,0.45-2.15,1.23-3.02,1.75c-0.9,0.52-1.84,0.94-2.12,0.94
			c-0.26,0-0.49,0.11-0.49,0.26c0,0.13-0.13,0.26-0.31,0.26c-0.15,0-0.64,0.26-1.07,0.6c-0.43,0.34-1.43,0.97-2.2,1.39
			c-0.77,0.42-1.46,0.81-1.54,0.89c-0.15,0.16-0.66,0.45-2.76,1.63c-0.79,0.42-1.77,1.02-2.15,1.28c-0.36,0.29-0.77,0.5-0.9,0.5
			c-0.15,0-0.46,0.24-0.72,0.52c-0.26,0.29-0.56,0.52-0.66,0.52c-0.13,0-0.9,0.45-1.74,1.02c-0.87,0.55-1.82,1.08-2.15,1.18
			c-0.59,0.13-3.25,1.75-6.45,3.88c-0.97,0.66-2.3,1.47-2.94,1.83c-2.15,1.23-4.74,2.91-5.45,3.51c-0.41,0.34-0.92,0.63-1.15,0.63
			c-0.23,0-0.72,0.24-1.07,0.52c-0.36,0.29-0.79,0.52-0.94,0.52c-0.18,0-0.33,0.11-0.33,0.21c0,0.13-0.31,0.39-0.69,0.6
			c-0.41,0.21-1.2,0.68-1.77,1.08c-0.59,0.42-1.2,0.73-1.36,0.73s-0.28,0.11-0.28,0.26c0,0.13-0.15,0.26-0.31,0.26
			c-0.18,0-0.9,0.47-1.61,1.05c-0.69,0.58-1.38,1.05-1.51,1.05c-0.1,0-0.94,0.52-1.82,1.15c-0.9,0.63-1.87,1.23-2.15,1.34
			c-0.31,0.08-0.54,0.29-0.54,0.42c0,0.13-0.18,0.24-0.38,0.24c-0.21,0-0.38,0.11-0.38,0.26c0,0.13-0.18,0.26-0.38,0.26
			c-0.41,0-2.3,1.13-2.86,1.73c-0.18,0.19-1.05,0.76-1.92,1.31c-0.9,0.55-2.61,1.68-3.81,2.52c-1.23,0.84-2.3,1.52-2.38,1.52
			c-0.1,0-0.54,0.34-1,0.78c-0.43,0.42-1.13,0.92-1.51,1.08c-0.41,0.16-0.72,0.39-0.72,0.5s-0.31,0.29-0.69,0.39
			c-0.38,0.08-0.77,0.26-0.85,0.37c-0.08,0.08-0.77,0.58-1.54,1.08c-0.77,0.5-1.43,1-1.48,1.1c-0.05,0.13-0.21,0.21-0.33,0.21
			c-0.23,0-2.74,1.73-3.18,2.2c-0.28,0.29-0.51,0.47-2.41,1.68c-0.62,0.39-1.26,0.86-1.43,1.02c-0.21,0.19-0.46,0.34-0.59,0.34
			c-0.15,0-0.31,0.11-0.36,0.21c-0.1,0.26-2.46,1.89-2.74,1.89c-0.13,0-0.94,0.55-1.87,1.23c-3.02,2.28-4.17,3.07-4.89,3.46
			c-0.38,0.19-0.69,0.45-0.69,0.58s-0.15,0.24-0.36,0.24s-0.41,0.11-0.46,0.21c-0.02,0.13-0.82,0.76-1.74,1.39
			c-0.92,0.63-1.84,1.34-2.05,1.57c-0.41,0.45-1.92,1.31-2.2,1.26c-0.1,0-0.26,0.08-0.33,0.21c-0.26,0.37-3.86,2.96-4.1,2.96
			c-0.13,0-0.28,0.08-0.33,0.19c-0.02,0.13-0.77,0.73-1.61,1.36c-0.85,0.66-1.58,1.26-1.66,1.34c-0.08,0.11-0.87,0.71-1.79,1.34
			s-1.82,1.28-2.02,1.49c-0.18,0.19-0.74,0.58-1.28,0.84c-1.58,0.89-2.54,1.57-3.53,2.54c-0.31,0.31-1.13,0.97-1.79,1.41
			c-0.69,0.47-1.38,1.02-1.56,1.21c-0.18,0.19-0.66,0.52-1.07,0.78c-0.43,0.24-0.77,0.55-0.77,0.66c0,0.11-0.15,0.21-0.36,0.21
			c-0.21,0-0.41,0.11-0.46,0.21c-0.08,0.21-5.04,4.01-6.06,4.64c-0.23,0.13-0.46,0.31-0.54,0.39c-0.43,0.47-6.45,4.98-6.65,4.98
			c-0.13,0-0.28,0.21-0.38,0.45c-0.15,0.47-1.9,1.86-2.74,2.23c-0.36,0.16-2.02,1.36-3.43,2.54c-0.13,0.11-0.82,0.66-1.54,1.21
			c-0.69,0.52-1.66,1.34-2.15,1.81c-0.49,0.45-1.3,1.1-1.79,1.47c-0.49,0.34-0.94,0.71-1.02,0.78s-0.66,0.55-1.33,1.05
			c-0.66,0.5-1.23,1-1.23,1.13c0,0.11,0.28,0.34,0.64,0.5s0.64,0.39,0.64,0.52c0,0.11,0.13,0.21,0.28,0.21
			c0.15,0,0.79,0.34,1.43,0.78c0.62,0.42,1.23,0.78,1.33,0.78c0.13,0,0.59,0.37,1.05,0.78c0.46,0.42,0.87,0.78,0.94,0.78
			c0.08,0,2.02,1.28,4.33,2.88c2.3,1.57,4.3,2.88,4.45,2.88c0.13,0,0.26,0.11,0.26,0.26c0,0.13,0.28,0.31,0.64,0.42
			c0.36,0.08,0.64,0.26,0.64,0.39c0,0.13,0.64,0.63,1.43,1.15c0.79,0.52,1.56,1.05,1.71,1.21c0.18,0.13,1.13,0.78,2.1,1.47
			c1,0.66,1.84,1.31,1.87,1.41c0.05,0.13,0.26,0.24,0.46,0.24c0.21,0,0.36,0.11,0.36,0.24s0.72,0.73,1.61,1.36
			c0.87,0.6,1.64,1.18,1.71,1.28c0.08,0.08,0.49,0.31,0.92,0.5c0.43,0.19,1.58,0.92,2.56,1.63s1.97,1.41,2.22,1.6
			c0.25,0.19,0.74,0.58,1.07,0.86c0.72,0.66,1.02,0.86,5.07,3.65c1.79,1.23,3.35,2.25,3.48,2.25c0.1,0,0.72,0.42,1.33,0.92
			c0.62,0.5,1.26,0.92,1.38,0.92c0.15,0,0.43,0.24,0.64,0.52c0.21,0.29,0.59,0.52,0.85,0.52c0.46,0,2.46-1.34,3.61-2.41
			c0.28-0.26,0.64-0.47,0.77-0.47c0.15,0,0.59-0.29,0.97-0.66c0.38-0.37,0.82-0.66,0.97-0.66c0.13,0,0.26-0.11,0.26-0.24
			c0-0.21,2.99-2.65,8.16-6.63c0.62-0.47,1.3-1.08,1.54-1.31c0.21-0.26,0.49-0.47,0.62-0.47s1.26-0.78,2.48-1.75
			c1.26-1,2.97-2.28,3.79-2.88c0.82-0.63,1.9-1.47,2.38-1.91c1.54-1.39,4.2-3.41,4.48-3.41c0.13,0,0.49-0.21,0.77-0.47
			c0.26-0.24,0.82-0.68,1.26-0.94c0.41-0.29,0.87-0.6,1.02-0.73c2.41-1.99,3.61-2.94,5.12-4.06c0.97-0.73,1.92-1.44,2.05-1.57
			c0.87-0.71,2.22-1.65,3.33-2.3c0.69-0.39,1.51-1,1.79-1.28c0.54-0.55,4.25-3.35,7.27-5.5c0.79-0.58,1.46-1.13,1.51-1.26
			c0.05-0.11,0.23-0.21,0.38-0.21c0.18,0,0.59-0.31,0.92-0.68c0.33-0.37,0.97-0.81,1.41-1c0.46-0.19,0.97-0.52,1.18-0.71
			c0.41-0.39,0.97-0.81,2.94-2.18c0.72-0.47,2.56-1.83,4.1-3.01c3.66-2.78,3.25-2.46,5.89-4.12c1.74-1.08,4.3-2.99,4.43-3.3
			c0.05-0.11,0.26-0.21,0.43-0.21s0.38-0.08,0.43-0.21c0.08-0.21,0-0.16,4.65-3.38c3.69-2.57,4.86-3.35,5.73-3.8
			c0.31-0.16,0.56-0.39,0.56-0.52c0-0.11,0.18-0.21,0.38-0.21c0.21,0,0.38-0.08,0.38-0.21c0-0.11,0.69-0.6,1.54-1.1
			s1.54-1,1.54-1.13c0-0.11,0.15-0.19,0.36-0.19c0.21,0,0.41-0.08,0.46-0.21c0.05-0.11,0.77-0.66,1.58-1.23
			c0.85-0.58,1.64-1.15,1.79-1.31c0.36-0.37,4.12-2.75,4.33-2.75c0.15,0,4.07-2.62,4.27-2.86c0.28-0.34,1.79-1.34,2.05-1.34
			c0.13,0,0.26-0.08,0.26-0.21c0-0.11,0.23-0.31,0.49-0.45c1.13-0.58,6.81-4.4,6.88-4.61c0.05-0.13,0.26-0.24,0.49-0.24
			c0.21,0,0.9-0.39,1.56-0.86c1.36-0.94,2.05-1.39,2.61-1.65c0.21-0.11,0.74-0.45,1.15-0.76c0.43-0.31,1.36-0.92,2.05-1.31
			c0.72-0.42,1.46-0.94,1.66-1.18c0.43-0.42,0.87-0.73,2.43-1.6c0.56-0.29,1.07-0.63,1.15-0.73c0.15-0.19,0.79-0.58,3.3-1.91
			c1.07-0.58,2.46-1.44,3.07-1.94c0.61-0.5,1.23-0.89,1.38-0.89c0.13,0,0.69-0.34,1.28-0.76c0.59-0.42,2.28-1.49,3.76-2.38
			c1.48-0.89,3.46-2.15,4.37-2.78c0.94-0.63,1.84-1.15,2-1.15s0.64-0.24,1.1-0.5c3.99-2.36,5.48-3.25,5.58-3.41
			c0.08-0.11,0.31-0.29,0.51-0.37c0.21-0.11,0.85-0.5,1.41-0.86c0.56-0.37,1.33-0.78,1.74-0.97c0.38-0.16,0.69-0.39,0.69-0.5
			c0-0.11,0.1-0.21,0.23-0.21c0.1,0,1.18-0.58,2.35-1.26c1.18-0.71,2.38-1.39,2.66-1.55c0.62-0.31,1.41-0.76,2.86-1.57
			c0.62-0.34,1.64-0.92,2.28-1.28c0.66-0.37,1.74-0.97,2.38-1.34s1.41-0.81,1.69-0.97c0.28-0.16,0.97-0.6,1.54-0.97
			c0.56-0.37,1.41-0.84,1.87-1.05c0.43-0.21,0.82-0.45,0.82-0.55c0-0.13,0.13-0.21,0.26-0.21c0.15,0,1.07-0.47,2.07-1.05
			c0.97-0.58,2.25-1.18,2.79-1.34c0.56-0.19,1.02-0.39,1.02-0.47c0-0.11,0.66-0.52,1.48-0.94c0.79-0.45,1.51-0.84,1.58-0.92
			c0.08-0.08,1.38-0.78,2.94-1.57c1.54-0.78,3.2-1.71,3.69-2.05c0.46-0.34,1.41-0.89,2.05-1.21c0.64-0.34,1.54-0.81,1.94-1.05
			c0.43-0.24,0.92-0.42,1.1-0.42c0.15,0,0.31-0.11,0.31-0.24c0-0.13,0.26-0.31,0.59-0.42c0.31-0.11,0.62-0.24,0.69-0.26
			c0.08-0.03,0.38-0.16,0.66-0.26c0.31-0.11,1.05-0.45,1.66-0.78c0.61-0.34,3.1-1.63,5.48-2.86c2.41-1.23,4.99-2.6,5.76-3.01
			c1.36-0.73,2.05-1.1,3.91-2.02c0.43-0.21,1.26-0.63,1.79-0.92c0.56-0.26,1.13-0.5,1.28-0.5s1.9-0.81,3.86-1.81
			c2-1,4.2-2.07,4.89-2.38c1.66-0.76,2.94-1.39,3.58-1.78c0.46-0.26,4.91-2.44,5.25-2.54c0.08-0.03,0.41-0.19,0.77-0.31
			c0.36-0.16,1.69-0.73,2.94-1.26c2.43-1,3.1-1.31,5.73-2.57c0.9-0.42,1.74-0.78,1.92-0.81c0.15-0.05,1.28-0.58,2.51-1.15
			c1.23-0.6,2.33-1.1,2.43-1.1c0.13,0,0.9-0.37,1.74-0.78c0.84-0.42,1.61-0.78,1.71-0.78c0.18,0,1.9-0.76,4.17-1.83
			c0.56-0.26,1.84-0.73,2.82-1.05c1-0.31,2.15-0.73,2.56-0.92c0.79-0.39,3.33-1.47,5.76-2.49c0.77-0.31,1.61-0.68,1.84-0.81
			c0.26-0.13,0.59-0.24,0.74-0.24c0.13,0,0.9-0.29,1.64-0.66c0.77-0.34,1.71-0.71,2.1-0.81c0.41-0.11,0.85-0.29,1.02-0.42
			c0.46-0.39,6.76-2.8,7.73-2.99c0.51-0.11,1.05-0.24,1.18-0.34c0.15-0.08,0.38-0.16,0.51-0.19c0.15-0.03,0.85-0.29,1.51-0.63
			c0.66-0.31,1.46-0.58,1.71-0.6s0.49-0.13,0.49-0.24s0.21-0.21,0.46-0.21c0.28,0,0.85-0.19,1.3-0.42c0.43-0.24,0.94-0.45,1.13-0.47
			c0.43-0.11,1.43-0.5,3.37-1.31c0.59-0.26,1.2-0.47,1.41-0.52c0.21-0.05,0.56-0.16,0.77-0.24c0.21-0.11,2-0.76,3.97-1.47
			c1.97-0.71,4.04-1.47,4.61-1.68c0.56-0.21,1.54-0.55,2.18-0.73c0.64-0.19,1.28-0.42,1.41-0.52c0.15-0.11,1-0.31,1.9-0.5
			c0.9-0.16,1.82-0.39,2.05-0.52c0.46-0.26,4.89-1.78,5.61-1.94c0.23-0.03,0.62-0.16,0.82-0.24s0.62-0.19,0.9-0.24
			c0.82-0.13,0.79-0.94-0.05-1.26c-0.38-0.13-0.92-0.39-1.15-0.52c-0.26-0.16-0.66-0.37-0.9-0.52c-0.26-0.13-0.74-0.37-1.1-0.52
			c-0.36-0.13-1.1-0.55-1.66-0.89c-1.38-0.89-6.17-3.3-6.5-3.3c-0.26,0-1.2-0.5-4.76-2.49c-2.58-1.44-6.7-3.54-6.98-3.54
			c-0.13,0-0.31-0.08-0.36-0.21c-0.13-0.34-6.57-3.72-7.06-3.72c-0.15,0-1.18-0.5-2.28-1.1c-2.61-1.41-11.03-5.71-11.2-5.71
			c-0.08,0-0.59-0.29-1.1-0.66C492.56,127.25,491.56,127.01,491.28,127.29z"/>
		<path class="st0" d="M226.99,156.83c-0.69,0.39-1.28,0.66-1.28,0.58c0-0.11-0.23,0.05-0.54,0.34c-0.31,0.26-0.59,0.47-0.64,0.42
			c-0.13-0.08-2.51,1.15-3.81,1.99c-0.56,0.37-1.02,0.63-1.02,0.6c0-0.11-1.02,0.31-1.15,0.47c-0.08,0.08-1.15,0.68-2.43,1.31
			c-1.26,0.66-2.86,1.52-3.53,1.91c-0.66,0.39-1.38,0.73-1.58,0.73c-0.21,0-0.38,0.13-0.38,0.31c0,0.16-0.08,0.21-0.18,0.13
			c-0.08-0.11-0.38,0.03-0.66,0.26c-0.26,0.26-0.54,0.45-0.59,0.39c-0.15-0.11-3.27,1.55-3.46,1.83c-0.08,0.13-0.26,0.26-0.38,0.26
			c-0.41,0.03-1,0.29-1.66,0.76c-0.36,0.26-0.74,0.42-0.85,0.31c-0.08-0.08-0.15-0.05-0.15,0.11s-0.54,0.55-1.2,0.92
			c-0.69,0.37-1.97,1.1-2.84,1.63c-0.9,0.52-1.74,0.94-1.87,0.94s-0.23,0.13-0.23,0.31c0,0.16-0.08,0.21-0.18,0.13
			c-0.08-0.11-0.28-0.08-0.43,0.05c-0.59,0.5-2.22,1.34-2.58,1.34c-0.21,0-0.62,0.24-0.9,0.52c-0.28,0.29-0.51,0.45-0.51,0.34
			c0-0.08-0.23,0.05-0.51,0.31c-0.28,0.26-0.51,0.37-0.51,0.24s-0.1-0.13-0.21,0.03c-0.18,0.26-0.43,0.42-2.69,1.68
			c-2.43,1.36-5.12,2.96-5.29,3.17c-0.08,0.08-0.41,0.31-0.77,0.5c-0.36,0.21-1.58,0.94-2.74,1.65c-1.18,0.68-2.69,1.49-3.4,1.81
			c-0.69,0.31-1.28,0.68-1.28,0.81s-0.1,0.19-0.23,0.11s-0.51,0.13-0.9,0.5c-0.36,0.34-0.66,0.58-0.66,0.52s-0.38,0.16-0.87,0.47
			c-1.74,1.18-3.35,2.12-3.53,2.07c-0.13-0.03-0.21,0.05-0.21,0.16c0,0.11-0.64,0.55-1.41,0.97c-0.77,0.39-1.41,0.84-1.41,0.97
			c0,0.11-0.08,0.19-0.18,0.16c-0.28-0.11-1.87,0.92-1.87,1.18c0,0.11-0.1,0.13-0.26,0.05c-0.13-0.08-0.26-0.05-0.26,0.08
			c0,0.13-0.46,0.45-1.02,0.73c-0.56,0.26-1.02,0.58-1.02,0.68c0,0.13-0.18,0.21-0.41,0.21c-0.46,0-2.94,1.47-3.2,1.89
			c-0.08,0.13-0.23,0.21-0.28,0.16c-0.08-0.03-1.3,0.71-2.74,1.68c-1.43,1-2.66,1.78-2.74,1.78c-0.08,0-0.26,0.13-0.43,0.26
			c-0.66,0.6-2.99,2.05-2.99,1.89c0-0.11-0.1-0.05-0.21,0.11c-0.23,0.34-3.25,2.2-3.58,2.2c-0.15,0-0.31,0.11-0.36,0.21
			c-0.02,0.13-1.79,1.34-3.91,2.68c-2.1,1.34-3.99,2.62-4.14,2.83c-0.18,0.24-0.33,0.31-0.33,0.21c0-0.11-0.31,0.05-0.69,0.34
			c-1.46,1.15-5.09,3.57-5.42,3.62c-0.21,0.03-0.46,0.21-0.56,0.39c-0.13,0.19-0.23,0.24-0.23,0.13c0-0.21-3.56,2.2-4.43,2.99
			c-0.26,0.24-0.85,0.66-1.33,0.92s-0.9,0.58-0.9,0.68c0,0.13-0.1,0.21-0.26,0.21c-0.21,0-2.69,1.65-3.46,2.3
			c-0.13,0.11-0.43,0.29-0.64,0.39c-0.21,0.11-0.69,0.39-1.05,0.66c-2.35,1.63-3.56,2.41-3.71,2.41c-0.08,0-0.51,0.29-0.97,0.66
			c-1.13,0.94-1.1,0.92-3.1,2.23c-0.97,0.66-1.94,1.31-2.12,1.49s-0.41,0.34-0.51,0.34c-0.1,0-0.59,0.37-1.07,0.78
			c-0.49,0.45-1.46,1.18-2.18,1.63c-0.69,0.47-1.33,0.92-1.41,1c-0.08,0.08-0.64,0.42-1.28,0.76c-0.64,0.37-1.3,0.81-1.48,1
			c-0.18,0.19-0.51,0.34-0.72,0.34c-0.21,0-0.36,0.11-0.36,0.21c0,0.11-0.31,0.39-0.72,0.63c-0.38,0.24-1.05,0.76-1.46,1.18
			c-0.43,0.42-0.85,0.73-0.94,0.73s-0.38,0.19-0.64,0.39s-1.15,0.86-2,1.47c-0.85,0.58-2.48,1.73-3.63,2.54
			c-1.13,0.84-2.2,1.49-2.35,1.49c-0.13,0-0.36,0.16-0.46,0.34c-0.1,0.19-0.64,0.6-1.15,0.97c-0.54,0.37-0.97,0.76-0.97,0.86
			c0,0.13-0.1,0.13-0.26,0.05c-0.13-0.08-0.26-0.05-0.26,0.08c0,0.13-0.41,0.45-0.9,0.73c-0.49,0.26-0.9,0.55-0.9,0.63
			s-0.41,0.37-0.9,0.63c-0.49,0.29-0.9,0.6-0.9,0.73c0,0.11-0.18,0.21-0.41,0.21c-0.26,0-0.36,0.19-0.31,0.52
			c0.05,0.31,0.13,0.52,0.21,0.47c0.08-0.05,0.49,0.19,0.94,0.52c0.43,0.31,0.92,0.58,1.07,0.58c0.15,0,0.28,0.13,0.28,0.31
			c0,0.16,0.08,0.24,0.15,0.13c0.08-0.08,0.74,0.21,1.46,0.63c0.74,0.45,1.54,0.86,1.77,0.94c0.26,0.08,0.46,0.24,0.46,0.37
			c0,0.13,0.23,0.24,0.54,0.24c0.28,0,0.85,0.21,1.2,0.5c0.38,0.26,1.43,0.86,2.35,1.34c0.92,0.5,2.12,1.21,2.69,1.57
			c0.56,0.39,1.56,0.97,2.25,1.31c0.66,0.34,1.43,0.84,1.71,1.1c0.28,0.26,0.51,0.42,0.51,0.34c0-0.11,0.31,0.08,0.66,0.37
			c0.38,0.31,0.85,0.55,1.02,0.55c0.21,0,0.36,0.11,0.36,0.26c0,0.13,0.1,0.26,0.23,0.26c0.13,0,1,0.47,1.94,1.05
			c0.97,0.55,2.07,1.1,2.48,1.18c0.38,0.11,0.72,0.29,0.72,0.42c0,0.13,0.31,0.31,0.69,0.39c0.38,0.11,0.97,0.47,1.3,0.81
			c0.31,0.31,0.74,0.6,0.94,0.6s0.38,0.11,0.38,0.26c0,0.13,0.13,0.26,0.26,0.26c0.15,0,1.54,0.76,3.05,1.71
			c1.54,0.94,2.92,1.71,3.07,1.71s0.56,0.26,0.92,0.58c1,0.89,3.5,2.33,6.06,3.46c0.51,0.24,1.02,0.55,1.1,0.68
			c0.26,0.45,0.82,0.29,1.61-0.39c0.43-0.37,0.9-0.66,1.02-0.66c0.15,0,0.56-0.26,0.92-0.6c0.66-0.63,0.79-0.73,2.33-1.89
			c0.56-0.45,1.13-0.86,1.28-1c0.13-0.11,0.72-0.55,1.28-0.97s1.15-0.89,1.28-1c0.15-0.13,0.62-0.45,1.02-0.73
			c1.02-0.66,1.36-0.92,2-1.57c0.56-0.5,1.2-0.97,4.4-3.15c0.85-0.55,1.64-1.13,1.79-1.28c0.15-0.16,0.62-0.5,1.05-0.76
			c0.41-0.29,0.87-0.6,1.02-0.73c0.13-0.11,0.77-0.63,1.41-1.15c2.1-1.75,4.84-3.77,5.09-3.77c0.15,0,0.28-0.11,0.28-0.21
			c0-0.13,0.51-0.5,1.15-0.84c0.64-0.34,1.82-1.15,2.61-1.81c2.35-1.94,4.37-3.43,4.68-3.43c0.13,0,0.26-0.11,0.26-0.21
			c0-0.13,0.41-0.45,0.9-0.73c0.49-0.26,0.9-0.55,0.9-0.63s0.41-0.37,0.9-0.63c0.49-0.29,0.9-0.58,0.9-0.68s0.21-0.26,0.46-0.37
			c0.23-0.08,1.07-0.63,1.84-1.21c0.77-0.58,2.05-1.49,2.82-2.05c4.4-3.07,5.5-3.88,5.58-4.06c0.05-0.11,0.26-0.19,0.43-0.19
			c0.21,0,0.46-0.16,0.56-0.34c0.26-0.45,4.61-3.59,4.97-3.59c0.28,0,1.84-1.08,1.97-1.39c0.05-0.11,0.21-0.19,0.33-0.19
			c0.21,0,2.35-1.52,3.43-2.41c0.74-0.63,3.25-2.3,3.46-2.3c0.1,0,0.26-0.08,0.31-0.21c0.05-0.11,0.9-0.71,1.87-1.36
			c1-0.66,1.84-1.26,1.87-1.36c0.05-0.13,0.21-0.21,0.33-0.21c0.28,0,3.15-1.89,3.25-2.18c0.05-0.11,0.21-0.19,0.33-0.19
			s0.79-0.39,1.46-0.86s2.18-1.49,3.37-2.25c1.2-0.76,2.43-1.63,2.74-1.91c0.64-0.6,1.51-1.15,2.2-1.41
			c0.23-0.08,0.43-0.26,0.43-0.37c0-0.08,0.66-0.52,1.48-0.92c1.77-0.92,5.55-3.38,5.78-3.77c0.1-0.16,0.31-0.24,0.43-0.16
			c0.13,0.11,0.23,0.05,0.23-0.05c0-0.13,0.43-0.45,0.97-0.73c0.51-0.29,1-0.58,1.07-0.68c0.08-0.08,0.54-0.37,1.02-0.66
			c0.49-0.26,1.1-0.71,1.38-0.97c0.28-0.24,0.64-0.45,0.82-0.45c0.18,0,0.66-0.29,1.07-0.66c0.43-0.37,0.9-0.66,1.02-0.66
			c0.15,0,0.59-0.29,1-0.63c0.66-0.58,2.3-1.41,2.64-1.36c0.08,0.03,0.41-0.24,0.77-0.58c0.33-0.31,0.77-0.58,0.94-0.58
			c0.18,0,0.33-0.11,0.33-0.24c0-0.13,0.28-0.31,0.64-0.39c0.36-0.11,0.64-0.29,0.64-0.42c0-0.16,0.13-0.26,0.28-0.26
			c0.15,0,1.1-0.55,2.1-1.23c1.02-0.71,1.97-1.31,2.1-1.36c0.15-0.05,0.31-0.19,0.38-0.26c0.08-0.08,0.54-0.39,1.02-0.66
			c0.49-0.29,1.41-0.78,2.05-1.15c0.64-0.34,1.28-0.71,1.41-0.84c0.59-0.45,2.74-1.57,3.02-1.57c0.18,0,0.56-0.21,0.85-0.47
			c0.28-0.24,0.92-0.68,1.41-0.94c0.49-0.26,1.56-0.89,2.41-1.39s2.18-1.28,2.94-1.73c2.79-1.57,3.05-1.73,4.07-2.38
			c0.56-0.39,1.13-0.68,1.26-0.68c0.1,0,0.43-0.21,0.72-0.47c0.56-0.55,0.56-0.55,1.33-0.73c0.31-0.11,0.56-0.29,0.56-0.42
			c0-0.16,0.18-0.21,0.38-0.11c0.21,0.08,0.38,0.03,0.38-0.11c0-0.16,0.1-0.26,0.23-0.26s0.56-0.13,0.97-0.31
			c0.38-0.16,0.79-0.29,0.92-0.26c0.1,0.03,0.18-0.08,0.18-0.21c0-0.16,0.13-0.26,0.28-0.26s0.59-0.24,0.97-0.5
			c0.36-0.29,1.82-1.13,3.22-1.86c1.41-0.76,3.05-1.65,3.66-1.99c0.59-0.34,1.07-0.52,1.07-0.42s0.1,0.05,0.21-0.11
			c0.1-0.13,0.59-0.47,1.07-0.73c2.2-1.13,3.43-1.89,3.5-2.18c0.08-0.19-0.21-0.45-0.62-0.6c-0.38-0.16-0.94-0.39-1.23-0.55
			c-0.31-0.13-0.69-0.29-0.9-0.34c-0.21-0.03-0.64-0.21-0.94-0.37c-0.33-0.19-0.59-0.24-0.59-0.13c0,0.11-0.1,0.08-0.21-0.08
			c-0.21-0.31-1.92-1.15-2.33-1.15c-0.15,0-0.28-0.13-0.28-0.31c0-0.16-0.08-0.21-0.15-0.13c-0.1,0.08-0.41,0.03-0.72-0.13
			c-0.28-0.19-0.59-0.34-0.66-0.34s-1.28-0.6-2.69-1.31c-1.41-0.7-2.61-1.31-2.69-1.31c-0.08-0.03-0.69-0.31-1.41-0.66
			c-0.69-0.34-1.36-0.63-1.46-0.63c-0.08-0.03-0.26-0.11-0.36-0.24c-0.1-0.11-0.36-0.19-0.56-0.19c-0.18,0-0.69-0.24-1.1-0.55
			c-0.41-0.29-0.74-0.47-0.74-0.39c0,0.08-0.77-0.29-1.71-0.76c-0.97-0.5-1.87-0.92-2.05-0.92c-0.15,0-0.62-0.13-1.02-0.31
			c-0.38-0.16-0.77-0.31-0.85-0.34c-0.08,0-0.69-0.31-1.41-0.66c-0.69-0.34-1.33-0.63-1.41-0.66c-0.08-0.03-0.56-0.24-1.13-0.47
			c-0.54-0.24-1.07-0.45-1.2-0.45s-0.23-0.13-0.23-0.26c0-0.16-0.08-0.24-0.18-0.21c-0.13,0.03-1.13-0.42-2.25-0.94
			c-2.07-1.02-3.33-1.55-3.33-1.44c0,0.03-0.28-0.11-0.64-0.29c-0.36-0.21-0.72-0.34-0.82-0.31c-0.13,0.03-0.21-0.08-0.21-0.21
			c0-0.16-0.13-0.26-0.26-0.26c-0.15,0-1.05-0.37-2-0.84c-0.94-0.45-1.77-0.84-1.84-0.84c-0.08-0.03-0.31-0.16-0.51-0.29
			C229.11,155.97,228.32,156.1,226.99,156.83z"/>
		<path class="st0" d="M587,180.31c-0.92,0.34-1.84,0.66-2.1,0.68c-0.26,0.05-0.54,0.16-0.62,0.26c-0.1,0.11-0.46,0.19-0.79,0.19
			c-0.31,0-0.59,0.11-0.59,0.26c0,0.13-0.21,0.26-0.49,0.26c-0.26,0-1.1,0.29-1.84,0.63c-0.77,0.31-2.07,0.81-2.92,1.08
			c-0.85,0.26-1.64,0.58-1.79,0.68c-0.13,0.11-0.72,0.26-1.28,0.37c-0.56,0.11-1.82,0.52-2.79,0.94c-0.94,0.42-1.97,0.76-2.22,0.76
			s-0.49,0.11-0.49,0.26c0,0.13-0.18,0.26-0.38,0.26c-0.21,0-0.59,0.11-0.85,0.24c-0.23,0.13-1.46,0.63-2.73,1.08
			c-1.26,0.47-2.92,1.15-3.66,1.49c-0.74,0.37-1.48,0.68-1.66,0.71c-0.31,0.08-0.56,0.19-2.54,1.02c-0.51,0.21-1,0.34-1.07,0.24
			c-0.08-0.08-0.15,0-0.15,0.16c0,0.19-0.18,0.31-0.38,0.31c-0.2,0-0.59,0.11-0.85,0.24c-0.38,0.21-1.15,0.55-1.58,0.68
			c-0.15,0.05-2.51,1.15-3.12,1.47c-0.26,0.13-0.64,0.24-0.87,0.24c-0.36,0-4.22,1.55-5.27,2.12c-0.26,0.13-0.56,0.24-0.72,0.24
			s-0.56,0.21-0.94,0.45c-0.77,0.52-3.37,1.68-3.84,1.73c-0.18,0-0.33,0.11-0.33,0.24c0,0.11-0.15,0.21-0.36,0.21
			c-0.36,0-0.77,0.19-3.99,1.78c-0.92,0.47-1.82,0.84-2,0.84c-0.18,0-0.31,0.11-0.31,0.26c0,0.13-0.21,0.26-0.46,0.26
			c-0.26,0-0.56,0.08-0.66,0.19c-0.1,0.13-0.28,0.21-0.36,0.24c-0.1,0-0.82,0.34-1.58,0.71c-0.77,0.39-1.61,0.71-1.84,0.71
			c-0.26,0-0.85,0.24-1.36,0.52c-0.49,0.29-0.9,0.45-0.9,0.37c0-0.05-0.43,0.19-0.94,0.55c-0.54,0.37-1.05,0.66-1.18,0.66
			c-0.21,0-3.3,1.49-11.31,5.5c-2.54,1.28-4.99,2.38-5.42,2.49c-0.46,0.11-0.85,0.29-0.85,0.42c0,0.13-0.23,0.24-0.49,0.24
			c-0.28,0-0.54,0.11-0.59,0.24c-0.02,0.11-2.2,1.28-4.81,2.62c-2.58,1.31-4.78,2.49-4.86,2.6c-0.23,0.31-8.24,4.3-8.75,4.35
			c-0.1,0.03-0.38,0.21-0.64,0.42c-0.26,0.21-1.48,0.92-2.76,1.57c-1.26,0.66-2.35,1.23-2.43,1.31c-0.08,0.08-1.1,0.66-2.3,1.28
			c-1.2,0.63-2.46,1.36-2.82,1.6c-0.36,0.24-1.51,0.92-2.58,1.52c-2.71,1.47-2.74,1.47-4.53,2.3c-0.87,0.39-1.79,0.92-2.05,1.15
			c-0.23,0.21-1.18,0.81-2.1,1.28c-2.38,1.28-2.66,1.44-2.82,1.6c-0.08,0.08-0.64,0.39-1.28,0.73c-2.33,1.23-3.2,1.75-3.69,2.2
			c-0.26,0.26-1.77,1.1-3.33,1.91c-3.46,1.75-5.4,2.88-6.42,3.65c-0.41,0.31-1.28,0.89-1.92,1.23c-1.94,1.13-2.94,1.73-4.74,2.83
			c-0.94,0.6-1.77,1.08-1.84,1.08c-0.08,0-0.49,0.26-0.92,0.58c-0.46,0.34-1.51,0.97-2.35,1.41c-0.87,0.45-2.35,1.31-3.33,1.94
			c-1,0.6-2.2,1.34-2.69,1.63c-0.49,0.29-1.36,0.86-1.92,1.26c-1.77,1.23-5.27,3.41-5.5,3.41c-0.13,0-0.26,0.08-0.31,0.19
			c-0.02,0.13-0.77,0.55-1.61,1c-0.85,0.42-1.58,0.84-1.66,0.94c-0.08,0.08-1.56,1.08-3.33,2.2c-1.77,1.1-4.63,2.99-6.4,4.16
			c-1.77,1.21-3.86,2.52-4.65,2.91c-0.82,0.42-1.48,0.86-1.48,0.97s-0.18,0.21-0.38,0.21c-0.21,0-0.38,0.11-0.38,0.26
			c0,0.13-0.1,0.26-0.23,0.26c-0.15,0-0.77,0.34-1.38,0.78c-0.64,0.42-1.23,0.78-1.3,0.78c-0.08,0-0.51,0.34-0.97,0.78
			c-0.43,0.42-0.87,0.78-1,0.78c-0.1,0-1.41,0.81-2.89,1.83c-1.48,1-2.82,1.83-2.97,1.83c-0.13,0-0.26,0.11-0.26,0.24
			s-0.41,0.42-0.92,0.68c-1.1,0.52-3.27,1.99-3.37,2.28c-0.05,0.11-0.18,0.21-0.31,0.21c-0.18,0-4.07,2.65-9.09,6.16
			c-1.13,0.78-2.12,1.44-2.25,1.44c-0.1,0-1.38,0.84-2.82,1.83c-4.68,3.3-7.73,5.48-8.03,5.76c-0.18,0.13-0.41,0.26-0.56,0.26
			c-0.13,0-0.28,0.11-0.33,0.21c-0.1,0.26-2.46,1.89-2.74,1.89c-0.1,0-0.49,0.24-0.82,0.55s-1.26,0.97-2.02,1.47
			c-0.77,0.52-1.46,1.02-1.54,1.1c-0.08,0.11-1.23,0.94-2.56,1.86c-2.41,1.63-4.01,2.86-4.97,3.72c-0.28,0.26-1,0.71-1.58,1.02
			c-0.62,0.29-1.54,0.89-2.07,1.34c-0.54,0.42-1.71,1.28-2.64,1.91c-0.92,0.63-1.94,1.41-2.3,1.75c-0.36,0.34-1.02,0.86-1.46,1.13
			c-0.46,0.29-0.85,0.6-0.85,0.71s-0.13,0.21-0.28,0.21c-0.13,0-0.72,0.37-1.28,0.78c-0.54,0.45-1.46,1.13-2,1.57
			c-0.56,0.42-1.15,0.78-1.3,0.78c-0.33,0-2.07,1.28-2.35,1.73c-0.13,0.19-0.87,0.76-1.66,1.31c-0.82,0.55-1.54,1.08-1.61,1.15
			c-0.08,0.08-0.69,0.58-1.41,1.05c-0.69,0.5-1.3,0.97-1.36,1.1c-0.05,0.11-0.26,0.21-0.43,0.21c-0.18,0-0.38,0.11-0.43,0.21
			c-0.02,0.13-0.77,0.73-1.61,1.36c-0.85,0.63-1.64,1.26-1.79,1.36c-0.13,0.11-0.9,0.66-1.66,1.18s-1.46,1.02-1.54,1.13
			c-0.08,0.11-0.69,0.58-1.41,1.08c-2.15,1.49-4.04,3.01-5.14,4.09c-0.18,0.19-0.38,0.34-0.46,0.34c-0.1,0-0.49,0.29-0.87,0.63
			c-0.74,0.68-2.56,1.99-2.74,1.99c-0.15,0-2.74,1.86-2.94,2.1c-0.08,0.11-0.38,0.34-0.72,0.58c-0.31,0.21-1.02,0.84-1.58,1.36
			c-0.54,0.52-1.07,0.94-1.15,0.94s-0.41,0.24-0.72,0.55c-0.31,0.29-1.07,0.92-1.71,1.36c-0.64,0.45-1.2,0.86-1.28,0.97
			c-0.36,0.47-2.69,2.1-2.97,2.1c-0.21,0-0.36,0.11-0.36,0.26c0,0.13-0.13,0.26-0.26,0.26c-0.15,0-0.64,0.39-1.1,0.86
			c-0.46,0.45-1.07,1.02-1.36,1.23c-0.26,0.21-1.61,1.28-2.99,2.36c-1.36,1.08-2.86,2.23-3.33,2.57c-0.43,0.34-1.15,0.92-1.58,1.31
			c-0.41,0.39-1.07,0.86-1.46,1.08c-0.41,0.21-0.72,0.47-0.72,0.6c0,0.11-0.15,0.21-0.36,0.21s-0.41,0.08-0.46,0.19
			c-0.08,0.21-1.1,1.1-2.51,2.18c-0.46,0.37-1.26,1.05-1.77,1.49c-0.51,0.47-1,0.86-1.1,0.86c-0.13,0-0.64,0.42-1.15,0.94
			c-0.54,0.52-1.38,1.26-1.87,1.63c-0.49,0.39-0.94,0.78-1.02,0.86c-0.08,0.11-0.74,0.55-1.46,1.02c-0.74,0.45-1.36,0.89-1.36,0.97
			c0,0.19,0.59,0.73,1.02,0.94c0.21,0.11,0.9,0.6,1.54,1.1s1.41,1.05,1.74,1.23c0.31,0.16,0.56,0.39,0.56,0.5
			c0,0.11,1.07,1,2.38,1.97c1.28,1,2.48,1.91,2.66,2.07c0.18,0.13,0.49,0.42,0.69,0.58c0.21,0.19,0.49,0.34,0.64,0.34
			c0.23,0,3.12,2.15,3.86,2.88c0.23,0.21,0.74,0.63,1.13,0.92c0.41,0.29,0.87,0.68,1.05,0.84c0.21,0.19,0.43,0.34,0.54,0.34
			c0.08,0,0.36,0.21,0.59,0.47c0.23,0.24,0.85,0.73,1.36,1.1c0.54,0.37,0.97,0.73,0.97,0.84c0,0.13,0.15,0.21,0.33,0.21
			s0.49,0.24,0.69,0.52c0.21,0.29,0.46,0.52,0.59,0.52s0.56,0.26,0.94,0.58c0.38,0.34,0.97,0.81,1.3,1.05
			c1.05,0.76,1.79,1.36,2.61,2.12c0.43,0.39,0.94,0.71,1.13,0.71s0.33,0.11,0.33,0.26c0,0.13,0.49,0.58,1.1,1.02
			c0.59,0.42,1.38,1.05,1.77,1.39c0.36,0.34,0.94,0.78,1.26,1c0.33,0.21,0.94,0.73,1.38,1.18c0.41,0.42,1.46,1.26,2.3,1.81
			c0.85,0.58,1.71,1.23,1.92,1.47c0.21,0.21,0.64,0.58,0.92,0.78c1.61,1.15,3.61,2.8,4.63,3.83c0.62,0.63,1.23,1.15,1.33,1.15
			c0.11,0,0.46,0.29,0.79,0.66c0.33,0.37,1.51,1.28,2.61,2.02c1.1,0.73,2,1.41,2,1.52c0,0.11,0.54,0.58,1.2,1.02
			c0.69,0.45,1.13,0.81,1,0.81s0.08,0.24,0.46,0.55c0.66,0.55,0.69,0.55,1.23,0.08c0.31-0.29,0.85-0.76,1.2-1.08
			c0.36-0.31,1.13-0.97,1.69-1.47c0.56-0.47,1.2-1,1.43-1.13c0.62-0.34,2.43-1.86,4.2-3.51c0.85-0.78,2.15-1.97,2.92-2.62
			c0.74-0.66,1.51-1.31,1.66-1.44c1.15-1.05,2.99-2.49,3.73-2.96c0.51-0.29,1.2-0.89,1.58-1.28c0.36-0.39,0.87-0.92,1.13-1.13
			c0.28-0.21,0.85-0.68,1.28-1.05c0.43-0.37,1.23-1.02,1.77-1.44c1-0.78,1.87-1.52,3.97-3.27c0.62-0.5,1.28-1.02,1.48-1.15
			s0.62-0.45,0.92-0.68c1.28-1.13,2.92-2.46,5.4-4.43c1-0.78,2.74-2.23,3.86-3.22c1.15-0.97,2.2-1.78,2.35-1.78
			c0.15,0,0.79-0.45,1.41-1c1.13-0.94,1.48-1.23,3.63-2.88c0.56-0.45,1.43-1.15,1.92-1.57c1.56-1.39,3.84-3.19,3.97-3.19
			c0.08,0,0.46-0.29,0.85-0.66c0.38-0.37,0.82-0.66,0.97-0.66c0.15,0,0.74-0.37,1.28-0.78c0.56-0.45,1.33-1.05,1.74-1.39
			c0.41-0.31,0.9-0.73,1.07-0.92c0.77-0.78,2.64-2.1,2.76-1.97c0.08,0.11,0.15,0.03,0.15-0.11c0-0.16,1.23-1.21,2.76-2.33
			c1.51-1.13,2.79-2.15,2.82-2.25c0.05-0.11,0.28-0.21,0.49-0.21c0.23,0,0.66-0.26,0.97-0.6c0.31-0.31,1.3-1.13,2.2-1.78
			c4.22-3.09,6.27-4.66,7.73-5.84c0.87-0.68,1.87-1.39,2.22-1.57c0.36-0.16,1.33-0.78,2.18-1.41c0.85-0.63,1.82-1.34,2.12-1.57
			c0.82-0.6,2.41-1.81,2.79-2.15c0.94-0.81,6.45-4.72,6.63-4.72c0.13,0,1.36-0.86,2.74-1.89c1.38-1.05,3.05-2.3,3.71-2.75
			c0.66-0.47,2.1-1.52,3.2-2.3c1.1-0.78,2.05-1.44,2.12-1.44c0.08,0,0.38-0.24,0.69-0.55c0.31-0.29,0.92-0.73,1.33-0.94
			c1.41-0.76,9.09-6.16,9.09-6.39c0-0.13,0.1-0.24,0.26-0.24c0.18,0,2.1-1.26,3.48-2.28c0.49-0.37,1.23-0.81,2.61-1.55
			c0.74-0.39,1.77-1.1,2.3-1.55c0.51-0.47,1.46-1.15,2.1-1.57c0.64-0.39,1.41-0.97,1.74-1.26c0.31-0.29,0.56-0.45,0.56-0.31
			c0,0.11,0.21,0.03,0.46-0.21c0.23-0.21,1.71-1.26,3.25-2.3c1.56-1.05,2.86-1.99,2.89-2.12c0.05-0.11,0.26-0.21,0.46-0.21
			c0.31,0,2.99-1.65,3.43-2.1c0.18-0.19,1.1-0.76,1.54-0.97c0.21-0.11,0.43-0.24,0.51-0.31c0.1-0.13,4.04-2.83,7.14-4.9
			c0.62-0.42,1.26-0.84,1.41-0.97c0.15-0.11,0.69-0.37,1.18-0.58c0.87-0.39,1.79-0.92,2.05-1.18c0.13-0.13,1.97-1.44,2.79-1.97
			c0.23-0.16,1.07-0.71,1.87-1.26c0.79-0.52,1.58-0.97,1.74-0.97c0.13,0,0.26-0.08,0.26-0.21c0-0.11,0.43-0.42,0.97-0.71
			c0.51-0.29,1.3-0.78,1.74-1.1c0.43-0.34,0.92-0.6,1.07-0.6c0.15,0,0.41-0.24,0.56-0.55c0.18-0.29,0.36-0.47,0.46-0.39
			c0.08,0.11,0.38-0.05,0.66-0.34c0.31-0.26,0.97-0.63,1.51-0.81c0.51-0.16,0.94-0.42,0.94-0.55s0.13-0.24,0.31-0.24
			c0.15,0,0.66-0.29,1.13-0.66s0.9-0.66,1-0.66c0.18,0,3.53-2.12,3.71-2.36c0.08-0.11,0.54-0.39,1.02-0.68
			c0.49-0.26,0.94-0.58,1.02-0.66c0.18-0.21,5.86-3.67,6.78-4.12c0.43-0.21,1.97-1.15,3.46-2.07c1.48-0.92,2.86-1.78,3.07-1.91
			c0.36-0.21,1.51-0.94,6.09-3.8c1.05-0.66,1.94-1.18,2.02-1.18c0.05,0,0.28-0.19,0.49-0.39c0.23-0.21,0.69-0.47,1.07-0.58
			c0.38-0.08,1.3-0.55,2.05-1.05c0.74-0.47,1.41-0.86,1.48-0.86s0.51-0.29,0.94-0.63c0.46-0.34,1.33-0.92,1.97-1.28
			c0.64-0.34,1.97-1.13,2.99-1.71c1.02-0.6,1.97-1.1,2.12-1.1c0.13,0,0.26-0.11,0.26-0.21c0-0.13,0.46-0.45,1.02-0.71
			c0.56-0.26,1.02-0.55,1.02-0.66s0.9-0.63,2-1.15c1.07-0.55,2.2-1.13,2.48-1.28c0.28-0.16,0.85-0.47,1.28-0.68
			c0.41-0.24,0.82-0.47,0.9-0.55c0.1-0.11,1-0.63,2.43-1.41c0.28-0.16,0.56-0.34,0.64-0.45c0.13-0.13,1.94-1.21,4.61-2.68
			c0.77-0.45,2.28-1.28,3.33-1.89c1.05-0.6,2.73-1.49,3.71-1.99c1-0.5,1.84-0.94,1.92-1.02c0.08-0.08,0.59-0.37,1.15-0.66
			c0.56-0.29,1.71-0.92,2.56-1.39c0.85-0.5,2.18-1.26,2.94-1.71c0.77-0.42,1.82-1.02,2.3-1.31c0.49-0.29,1.71-0.94,2.69-1.47
			c1-0.52,1.87-1.05,1.97-1.21c0.1-0.13,0.21-0.19,0.21-0.08c0,0.16,5.07-2.44,10.36-5.29c1.41-0.76,4.22-2.23,6.27-3.27
			c6.65-3.38,11.39-5.74,11.52-5.76c0.08-0.03,2.2-1.08,4.74-2.38c2.54-1.28,4.68-2.38,4.81-2.41c0.1-0.03,0.82-0.34,1.58-0.71
			c0.79-0.37,1.54-0.66,1.64-0.66c0.13,0,0.66-0.24,1.23-0.5c1.77-0.92,7.24-3.43,7.45-3.43c0.1,0,0.46-0.24,0.82-0.52
			c0.36-0.29,0.77-0.52,0.94-0.52c0.15,0,1.07-0.37,2.05-0.81c0.94-0.45,2.22-1.02,2.82-1.31c0.62-0.26,1.18-0.5,1.26-0.5
			c0.15,0,3.18-1.39,3.94-1.81c0.23-0.13,0.79-0.31,1.28-0.42c0.85-0.19,1.33-0.37,3.43-1.31c0.49-0.21,1-0.39,1.15-0.39
			s0.66-0.24,1.18-0.52c0.51-0.29,1.07-0.52,1.26-0.52s0.51-0.19,0.69-0.42c0.28-0.34,0.26-0.45-0.08-0.66
			c-0.26-0.13-0.62-0.42-0.82-0.63c-0.21-0.21-0.49-0.39-0.64-0.39c-0.13,0-0.41-0.16-0.59-0.34c-0.18-0.16-0.77-0.55-1.28-0.84
			c-0.54-0.29-0.97-0.6-0.97-0.71c0-0.13-0.13-0.21-0.26-0.21c-0.15,0-1.36-0.71-2.71-1.57c-1.33-0.86-2.48-1.57-2.54-1.57
			c-0.08,0-0.92-0.52-1.92-1.18c-1-0.66-1.84-1.18-1.92-1.18s-2.43-1.47-5.25-3.27c-2.82-1.81-5.22-3.27-5.38-3.27
			c-0.13,0-0.26-0.13-0.26-0.26c0-0.16-0.13-0.26-0.28-0.26c-0.36,0-3.15-1.39-3.25-1.65c-0.05-0.11-0.21-0.19-0.31-0.19
			c-0.13,0-0.9-0.47-1.69-1.05c-0.82-0.58-1.56-1.05-1.69-1.05c-0.1,0-1-0.52-2-1.18c-1-0.66-1.9-1.18-2.02-1.18
			c-0.12,0-0.41-0.16-0.59-0.34c-0.18-0.16-0.77-0.55-1.3-0.84c-0.53-0.29-1.2-0.73-1.46-1c-0.28-0.24-0.56-0.45-0.62-0.45
			c-0.08,0-0.72-0.37-1.38-0.78c-0.69-0.45-1.43-0.78-1.61-0.78c-0.21,0-0.79-0.29-1.33-0.66c-0.51-0.37-0.94-0.58-0.94-0.47
			s-0.1,0.08-0.21-0.05c-0.1-0.16-0.59-0.5-1.07-0.76c-1.74-0.97-1.9-1.08-2.33-1.44c-0.26-0.21-1.02-0.71-1.71-1.1l-1.23-0.68
			L587,180.31z"/>
	</g>
</g>
</svg>
