<?xml version="1.0" encoding="utf-8"?>
<!-- Generator: Adobe Adobe Illustrator 24.2.0, SVG Export Plug-In . SVG Version: 6.00 Build 0)  -->
<svg version="1.1" id="Layer_1" xmlns="http://www.w3.org/2000/svg" xmlns:xlink="http://www.w3.org/1999/xlink" x="0px" y="0px"
	 viewBox="0 0 640 480" style="enable-background:new 0 0 640 480;" xml:space="preserve">
<style type="text/css">
	.st0{fill:#c6c7cb;}
</style>
<g>
	<g>
		<g>
			<g transform="translate(0.000000,383.000000) scale(0.100000,-0.100000)">
				<path class="st0" d="M2385.15,3826.47c-33.39-12.54-593.33-447.9-611.31-474.25c-26.97-41.41-164.38-736.47-281.26-1427.77
					c-156.68-922.17-348.03-2382.55-319.78-2434c6.42-11.29,109.16-119.19,227.32-239.63L1617.15-970h1089.06
					c624.16,0,1103.19,5.02,1121.17,11.29c28.25,11.29,619.02,562.07,642.13,598.46c5.14,8.78,29.54,181.93,55.22,383.92
					c38.53,314.91,107.88,804.22,161.82,1155.52c12.85,81.55,12.85,99.11-3.85,115.43c-15.41,15.05-127.14,20.07-651.12,30.11
					c-617.74,11.29-634.43,11.29-708.92-13.8c-42.38-13.8-77.06-26.35-77.06-28.86c0-2.51-8.99-79.04-17.98-171.89
					c-34.67-304.88-48.8-563.33-57.8-1032.57l-7.71-464.22l-82.19,156.83c-220.9,424.06-324.92,828.06-327.49,1275.97l-1.28,217.05
					h-60.36c-34.67,0-61.64,5.02-61.64,12.54c0,7.52-38.53,8.78-101.46,3.76c-60.36-3.76-104.03-2.51-107.88,5.02
					c-8.99,13.8,143.83,457.94,161.82,469.23c6.42,5.02,35.96,5.02,66.78,2.51c32.11-3.76,57.8-1.25,62.93,7.53
					c5.14,7.53,34.67,13.8,66.78,13.8c30.82,0,56.51,2.51,56.51,5.02s17.98,62.73,39.81,134.25
					c111.74,366.35,312.08,759.05,563.8,1101.57c95.04,131.74,315.93,402.74,327.49,402.74c2.57,0-7.71-35.13-20.54-77.79
					c-222.18-700.08-330.05-1095.29-403.26-1477.96c-23.12-120.45-23.12-120.45,71.92-150.56c44.95-15.05,139.99-13.8,684.51,11.29
					c346.75,15.05,642.13,32.62,656.26,37.64c21.83,8.78,34.67,56.46,93.75,372.63c38.53,199.49,104.03,526.95,146.41,726.44
					c62.93,302.37,73.2,367.61,60.37,388.94c-7.71,13.8-98.89,124.21-200.34,247.17c-178.51,214.54-186.22,222.07-238.87,228.34
					c-29.54,3.76-502.15,26.35-1049.25,51.44c-547.1,23.84-1032.55,46.42-1078.79,48.93
					C2441.66,3831.49,2395.42,3830.23,2385.15,3826.47z"/>
			</g>
		</g>
	</g>
</g>
</svg>
